<svg width="119" height="119" viewBox="0 0 119 119" fill="none" xmlns="http://www.w3.org/2000/svg">
<g id="icon" clip-path="url(#clip0_1_234)" filter="url(#filter0_d_1_234)">
<g id="Group">
<path id="Vector" d="M56.043 24C53.1835 24 50.8574 26.3261 50.8574 29.1855V31.0293L54.3145 32.7578H56.043H57.7715L61.2285 31.0293V29.1855C61.2285 26.3261 58.9024 24 56.043 24Z" fill="#E53536"/>
<path id="Vector_2" d="M61.2285 31.0293V29.1855C61.2285 26.3261 58.9024 24 56.043 24V32.7578H57.7715L61.2285 31.0293Z" fill="#F54748"/>
<path id="Vector_3" d="M30 76.0859C30.801 80.0306 34.4614 83 38.6426 83C42.8237 83 46.5994 80.0306 47.4004 76.0859L43.6451 74.3574H32.3996L30 76.0859Z" fill="#454545"/>
<path id="Vector_4" d="M38.6426 79.543C35.7832 79.543 33.457 77.2168 33.457 74.3574C33.457 71.498 35.7832 69.1719 38.6426 69.1719C41.502 69.1719 43.9434 71.498 43.9434 74.3574C43.9434 77.2168 41.502 79.543 38.6426 79.543Z" fill="white"/>
<path id="Vector_5" d="M47.4004 44.9727H36.9141L33.457 48.4297V58.8008L36.9141 60.5293H47.4004L52.5859 58.8008V49.4668L50.8574 48.4297L47.4004 44.9727Z" fill="#ED9F0F"/>
<path id="Vector_6" d="M33.457 41.5156V48.4297H50.8574L52.5859 47.5349L50.8574 46.7012V41.5156H33.457Z" fill="#FDC55E"/>
<path id="Vector_7" d="M57.7715 76.0859H30V74.3574C30 67.675 35.5324 62.2578 42.2148 62.2578L45.0957 60.5293H61.2285V73.2051L57.7715 76.0859Z" fill="#E53536"/>
<path id="Vector_8" d="M30 58.8008H54.3145V62.2578H30V58.8008Z" fill="#454545"/>
<path id="Vector_9" d="M66.4141 67.547V74.0462L64.6855 76.0859H57.7715V62.2578H54.3145C52.4131 62.2578 50.8574 60.7021 50.8574 58.8008V50.1582H61.2285V55.3438C63.1299 55.3438 64.6855 56.8994 64.6855 58.8008V65.7148L66.4141 67.547Z" fill="#5A5A5A"/>
<path id="Vector_10" d="M66.4141 67.547V74.0462L64.6855 76.0859H57.7715V62.2578H56.043V50.1582H61.2285V55.3438C63.1299 55.3438 64.6855 56.8994 64.6855 58.8008V65.7148L66.4141 67.547Z" fill="#3D3D3D"/>
<path id="Vector_11" d="M61.2285 48.4297V46.7012C61.2285 43.8417 58.9024 41.5156 56.043 41.5156C53.1835 41.5156 50.8574 43.8417 50.8574 46.7012V50.1582C50.8574 53.0221 53.179 55.3438 56.043 55.3438H69.9863C72.8502 55.3438 75.1719 53.0221 75.1719 50.1582V48.4297H61.2285Z" fill="#E53536"/>
<path id="Vector_12" d="M75.1719 50.1582V48.4297H61.2285V46.7012C61.2285 43.8417 58.9024 41.5156 56.043 41.5156V55.3438H69.9863C72.8502 55.3438 75.1719 53.0221 75.1719 50.1582Z" fill="#F54748"/>
<path id="Vector_13" d="M57.7715 32.7578H56.043H54.3145L50.8574 34.4863V36.2148C50.8574 39.0743 53.1835 41.5156 56.043 41.5156C58.9024 41.5156 61.2285 39.0743 61.2285 36.2148V34.4863L57.7715 32.7578Z" fill="#FFDFA5"/>
<path id="Vector_14" d="M61.2285 36.2148V34.4863L57.7715 32.7578H56.043V41.5156C58.9024 41.5156 61.2285 39.0743 61.2285 36.2148Z" fill="#FFA7A8"/>
<path id="Vector_15" d="M56.043 31.0293H50.8574V34.4863H56.043H64.6855V31.0293H56.043Z" fill="#5A5A5A"/>
<path id="Vector_16" d="M56.043 31.0293H64.6855V34.4863H56.043V31.0293Z" fill="#3D3D3D"/>
<path id="Vector_17" d="M79.9354 59.1873C79.7447 57.8419 79.3665 55.1918 78.6121 49.9133L71.7148 46.7012V60.5293C71.7148 63.2561 69.3658 65.7148 66.4141 65.7148H64.6855V76.0859H68.1426H85.543L89 74.3574V70.9004C89 65.3705 85.1852 60.5496 79.9354 59.1873Z" fill="#F54748"/>
<path id="Vector_18" d="M82.0859 51.8867H76.9004C74.041 51.8867 71.7148 49.5606 71.7148 46.7012C71.7148 43.8417 74.041 41.5156 76.9004 41.5156H82.0859V51.8867Z" fill="#E53536"/>
<path id="Vector_19" d="M80.8769 65.7673L80.3742 67.6881L77.4529 66.253C74.1192 67.4528 71.7148 70.6157 71.7148 74.3574C71.7148 79.1226 75.5921 82.9999 80.3574 82.9999C85.1227 82.9999 89 79.1226 89 74.3574C89 69.77 85.3963 66.0421 80.8769 65.7673Z" fill="#3D3D3D"/>
<path id="Vector_20" d="M80.3574 69.1719C77.498 69.1719 75.1719 71.498 75.1719 74.3574C75.1719 77.2168 77.498 79.543 80.3574 79.543C83.2168 79.543 85.543 77.2168 85.543 74.3574C85.543 71.498 83.2168 69.1719 80.3574 69.1719Z" fill="white"/>
<path id="Vector_21" d="M82.0692 74.1127L80.8771 65.7674C80.7016 65.7568 80.5354 65.7148 80.3575 65.7148C79.334 65.7148 78.365 65.925 77.4531 66.2531L78.6459 74.6022L82.0692 74.1127Z" fill="#A3A3A3"/>
</g>
</g>
<defs>
<filter id="filter0_d_1_234" x="0" y="0" width="119" height="119" filterUnits="userSpaceOnUse" color-interpolation-filters="sRGB">
<feFlood flood-opacity="0" result="BackgroundImageFix"/>
<feColorMatrix in="SourceAlpha" type="matrix" values="0 0 0 0 0 0 0 0 0 0 0 0 0 0 0 0 0 0 127 0" result="hardAlpha"/>
<feOffset dy="6"/>
<feGaussianBlur stdDeviation="15"/>
<feColorMatrix type="matrix" values="0 0 0 0 0.883615 0 0 0 0 0.178564 0 0 0 0 0.182616 0 0 0 0.34 0"/>
<feBlend mode="normal" in2="BackgroundImageFix" result="effect1_dropShadow_1_234"/>
<feBlend mode="normal" in="SourceGraphic" in2="effect1_dropShadow_1_234" result="shape"/>
</filter>
<clipPath id="clip0_1_234">
<rect width="59" height="59" fill="white" transform="translate(30 24)"/>
</clipPath>
</defs>
</svg>
